{
  "accessors": [
    {
      "bufferView": 2,
      "componentType": 5126,
      "count": 63288,
      "max": [
        2.9126760959625244,
        0.94928699731826782,
        1.316519021987915
      ],
      "min": [
        -2.339716911315918,
        -1.2745850086212158,
        -1.6589670181274414
      ],
      "type": "VEC3"
    },
    {
      "bufferView": 2,
      "byteOffset": 759456,
      "componentType": 5126,
      "count": 63288,
      "max": [
        0.99999850988388062,
        1,
        0.99999982118606567
      ],
      "min": [
        -0.99993777275085449,
        -1,
        -0.99986284971237183
      ],
      "type": "VEC3"
    },
    {
      "bufferView": 3,
      "componentType": 5126,
      "count": 63288,
      "max": [
        0.99998944997787476,
        0.99998396635055542,
        1,
        1
      ],
      "min": [
        -0.99997299909591675,
        -0.99970871210098267,
        -1,
        -1
      ],
      "type": "VEC4"
    },
    {
      "bufferView": 1,
      "componentType": 5126,
      "count": 63288,
      "max": [
        0.99378901720046997,
        1
      ],
      "min": [
        0,
        0
      ],
      "type": "VEC2"
    },
    {
      "bufferView": 0,
      "componentType": 5125,
      "count": 299508,
      "max": [
        63287
      ],
      "min": [
        0
      ],
      "type": "SCALAR"
    }
  ],
  "asset": {
    "extras": {
      "author": "antonhavemercy (https://sketchfab.com/antonhavemercy)",
      "license": "CC-BY-4.0 (http://creativecommons.org/licenses/by/4.0/)",
      "source": "https://sketchfab.com/3d-models/converse-one-star-7bed53213ce44365b31dadebb8b778dc",
      "title": "Converse One Star"
    },
    "generator": "Sketchfab-8.45.0",
    "version": "2.0"
  },
  "bufferViews": [
    {
      "buffer": 0,
      "byteLength": 1198032,
      "byteOffset": 0,
      "name": "floatBufferViews",
      "target": 34963
    },
    {
      "buffer": 0,
      "byteLength": 506304,
      "byteOffset": 1198032,
      "byteStride": 8,
      "name": "floatBufferViews",
      "target": 34962
    },
    {
      "buffer": 0,
      "byteLength": 1518912,
      "byteOffset": 1704336,
      "byteStride": 12,
      "name": "floatBufferViews",
      "target": 34962
    },
    {
      "buffer": 0,
      "byteLength": 1012608,
      "byteOffset": 3223248,
      "byteStride": 16,
      "name": "floatBufferViews",
      "target": 34962
    }
  ],
  "buffers": [
    {
      "byteLength": 4235856,
      "uri": "scene.bin"
    }
  ],
  "extensionsRequired": [
    "KHR_materials_pbrSpecularGlossiness"
  ],
  "extensionsUsed": [
    "KHR_materials_pbrSpecularGlossiness"
  ],
  "images": [
    {
      "uri": "textures/model_diffuse.jpeg"
    },
    {
      "uri": "textures/model_specularGlossiness.png"
    },
    {
      "uri": "textures/model_normal.png"
    }
  ],
  "materials": [
    {
      "doubleSided": true,
      "emissiveFactor": [
        0,
        0,
        0
      ],
      "extensions": {
        "KHR_materials_pbrSpecularGlossiness": {
          "diffuseFactor": [
            1,
            1,
            1,
            1
          ],
          "diffuseTexture": {
            "index": 0,
            "texCoord": 0
          },
          "glossinessFactor": 0.28139801421544486,
          "specularFactor": [
            1,
            1,
            1
          ],
          "specularGlossinessTexture": {
            "index": 1,
            "texCoord": 0
          }
        }
      },
      "name": "model",
      "normalTexture": {
        "index": 2,
        "scale": 0.2631574947254498,
        "texCoord": 0
      }
    }
  ],
  "meshes": [
    {
      "primitives": [
        {
          "attributes": {
            "NORMAL": 1,
            "POSITION": 0,
            "TANGENT": 2,
            "TEXCOORD_0": 3
          },
          "indices": 4,
          "material": 0,
          "mode": 4
        }
      ]
    }
  ],
  "nodes": [
    {
      "children": [
        1
      ],
      "name": "RootNode (gltf orientation matrix)",
      "rotation": [
        -0.70710678118654746,
        -0,
        -0,
        0.70710678118654757
      ]
    },
    {
      "children": [
        2
      ],
      "matrix": [
        0.9302172064781189,
        -0.11642684787511826,
        -0.34805276989936829,
        0,
        0.36242234706878662,
        0.44087511301040649,
        0.82114505767822266,
        0,
        0.057844474911689758,
        -0.88998538255691528,
        0.45230531692504883,
        0,
        0.088845513761043549,
        -0.20997834205627441,
        0.13949409127235413,
        1
      ],
      "name": "RootNode (model correction matrix)"
    },
    {
      "children": [
        3
      ],
      "name": "model.obj.cleaner.materialmerger.gles"
    },
    {
      "mesh": 0,
      "name": ""
    }
  ],
  "samplers": [
    {
      "magFilter": 9729,
      "minFilter": 9987,
      "wrapS": 10497,
      "wrapT": 10497
    }
  ],
  "scene": 0,
  "scenes": [
    {
      "name": "OSG_Scene",
      "nodes": [
        0
      ]
    }
  ],
  "textures": [
    {
      "sampler": 0,
      "source": 0
    },
    {
      "sampler": 0,
      "source": 1
    },
    {
      "sampler": 0,
      "source": 2
    }
  ]
}

